<svg width="1600" height="520" viewBox="0 0 1600 520" fill="none" xmlns="http://www.w3.org/2000/svg" role="img" aria-labelledby="title desc">
  <title id="title">mohammed</title>
  <desc id="desc">Clean abstract astronomical banner.</desc>
  <defs>
    <radialGradient id="halo" cx="50%" cy="50%" r="50%">
      <stop offset="0" stop-color="#F8FAFC" stop-opacity="0.42"/>
      <stop offset="0.18" stop-color="#FDE68A" stop-opacity="0.22"/>
      <stop offset="0.48" stop-color="#7DD3FC" stop-opacity="0.09"/>
      <stop offset="1" stop-color="#020617" stop-opacity="0"/>
    </radialGradient>
    <linearGradient id="ring" x1="0" y1="0" x2="1" y2="1">
      <stop offset="0" stop-color="#F8FAFC" stop-opacity="0.1"/>
      <stop offset="0.5" stop-color="#FDE68A" stop-opacity="0.42"/>
      <stop offset="1" stop-color="#93C5FD" stop-opacity="0.08"/>
    </linearGradient>
    <filter id="blur">
      <feGaussianBlur stdDeviation="18"/>
    </filter>
  </defs>

  <rect width="1600" height="520" fill="#020617"/>
  <circle cx="800" cy="260" r="255" fill="url(#halo)"/>
  <circle cx="800" cy="260" r="82" fill="#F8FAFC" opacity="0.05"/>
  <circle cx="800" cy="260" r="7" fill="#FDE68A" opacity="0.9"/>

  <ellipse cx="800" cy="260" rx="520" ry="92" stroke="url(#ring)" stroke-width="1.2"/>
  <ellipse cx="800" cy="260" rx="430" ry="68" stroke="#E5E7EB" stroke-opacity="0.09"/>
  <ellipse cx="800" cy="260" rx="310" ry="42" stroke="#FDE68A" stroke-opacity="0.14"/>

  <path d="M520 386 C660 320 940 320 1080 386" stroke="#E5E7EB" stroke-opacity="0.08"/>
  <path d="M616 146 C722 192 878 192 984 146" stroke="#FDE68A" stroke-opacity="0.12"/>

  <g opacity="0.9">
    <circle cx="310" cy="142" r="1.4" fill="#E5E7EB"/>
    <circle cx="468" cy="83" r="1.1" fill="#CBD5E1"/>
    <circle cx="1188" cy="122" r="1.3" fill="#E5E7EB"/>
    <circle cx="1306" cy="346" r="1.2" fill="#CBD5E1"/>
    <circle cx="244" cy="376" r="1.1" fill="#E5E7EB"/>
    <circle cx="1418" cy="214" r="1.4" fill="#FDE68A"/>
    <circle cx="1038" cy="70" r="1" fill="#E5E7EB"/>
    <circle cx="570" cy="452" r="1" fill="#CBD5E1"/>
  </g>

  <g filter="url(#blur)" opacity="0.38">
    <circle cx="800" cy="260" r="42" fill="#FDE68A"/>
  </g>
</svg>
